%TF.GenerationSoftware,KiCad,Pcbnew,(6.0.2)*%
%TF.CreationDate,2022-03-25T11:37:34+00:00*%
%TF.ProjectId,nimh-charger,6e696d68-2d63-4686-9172-6765722e6b69,rev?*%
%TF.SameCoordinates,Original*%
%TF.FileFunction,Legend,Bot*%
%TF.FilePolarity,Positive*%
%FSLAX46Y46*%
G04 Gerber Fmt 4.6, Leading zero omitted, Abs format (unit mm)*
G04 Created by KiCad (PCBNEW (6.0.2)) date 2022-03-25 11:37:34*
%MOMM*%
%LPD*%
G01*
G04 APERTURE LIST*
%ADD10C,0.300000*%
%ADD11C,0.150000*%
%ADD12C,0.120000*%
G04 APERTURE END LIST*
D10*
X118471071Y-112142857D02*
X116971071Y-112142857D01*
X116971071Y-112714285D01*
X117042500Y-112857142D01*
X117113928Y-112928571D01*
X117256785Y-113000000D01*
X117471071Y-113000000D01*
X117613928Y-112928571D01*
X117685357Y-112857142D01*
X117756785Y-112714285D01*
X117756785Y-112142857D01*
X118471071Y-113857142D02*
X118399642Y-113714285D01*
X118328214Y-113642857D01*
X118185357Y-113571428D01*
X117756785Y-113571428D01*
X117613928Y-113642857D01*
X117542500Y-113714285D01*
X117471071Y-113857142D01*
X117471071Y-114071428D01*
X117542500Y-114214285D01*
X117613928Y-114285714D01*
X117756785Y-114357142D01*
X118185357Y-114357142D01*
X118328214Y-114285714D01*
X118399642Y-114214285D01*
X118471071Y-114071428D01*
X118471071Y-113857142D01*
X117471071Y-114857142D02*
X118471071Y-115142857D01*
X117756785Y-115428571D01*
X118471071Y-115714285D01*
X117471071Y-116000000D01*
X118399642Y-117142857D02*
X118471071Y-117000000D01*
X118471071Y-116714285D01*
X118399642Y-116571428D01*
X118256785Y-116500000D01*
X117685357Y-116500000D01*
X117542500Y-116571428D01*
X117471071Y-116714285D01*
X117471071Y-117000000D01*
X117542500Y-117142857D01*
X117685357Y-117214285D01*
X117828214Y-117214285D01*
X117971071Y-116500000D01*
X118471071Y-117857142D02*
X117471071Y-117857142D01*
X117756785Y-117857142D02*
X117613928Y-117928571D01*
X117542500Y-118000000D01*
X117471071Y-118142857D01*
X117471071Y-118285714D01*
X118471071Y-119928571D02*
X116971071Y-119928571D01*
X117471071Y-120642857D02*
X118471071Y-120642857D01*
X117613928Y-120642857D02*
X117542500Y-120714285D01*
X117471071Y-120857142D01*
X117471071Y-121071428D01*
X117542500Y-121214285D01*
X117685357Y-121285714D01*
X118471071Y-121285714D01*
X118328214Y-122000000D02*
X118399642Y-122071428D01*
X118471071Y-122000000D01*
X118399642Y-121928571D01*
X118328214Y-122000000D01*
X118471071Y-122000000D01*
X117542500Y-122000000D02*
X117613928Y-122071428D01*
X117685357Y-122000000D01*
X117613928Y-121928571D01*
X117542500Y-122000000D01*
X117685357Y-122000000D01*
X116971071Y-124571428D02*
X116971071Y-123857142D01*
X117685357Y-123785714D01*
X117613928Y-123857142D01*
X117542500Y-124000000D01*
X117542500Y-124357142D01*
X117613928Y-124500000D01*
X117685357Y-124571428D01*
X117828214Y-124642857D01*
X118185357Y-124642857D01*
X118328214Y-124571428D01*
X118399642Y-124500000D01*
X118471071Y-124357142D01*
X118471071Y-124000000D01*
X118399642Y-123857142D01*
X118328214Y-123785714D01*
X116971071Y-125071428D02*
X118471071Y-125571428D01*
X116971071Y-126071428D01*
X120743214Y-106607142D02*
X120814642Y-106535714D01*
X120886071Y-106321428D01*
X120886071Y-106178571D01*
X120814642Y-105964285D01*
X120671785Y-105821428D01*
X120528928Y-105750000D01*
X120243214Y-105678571D01*
X120028928Y-105678571D01*
X119743214Y-105750000D01*
X119600357Y-105821428D01*
X119457500Y-105964285D01*
X119386071Y-106178571D01*
X119386071Y-106321428D01*
X119457500Y-106535714D01*
X119528928Y-106607142D01*
X120886071Y-107250000D02*
X119386071Y-107250000D01*
X120886071Y-107892857D02*
X120100357Y-107892857D01*
X119957500Y-107821428D01*
X119886071Y-107678571D01*
X119886071Y-107464285D01*
X119957500Y-107321428D01*
X120028928Y-107250000D01*
X120886071Y-109250000D02*
X120100357Y-109250000D01*
X119957500Y-109178571D01*
X119886071Y-109035714D01*
X119886071Y-108750000D01*
X119957500Y-108607142D01*
X120814642Y-109250000D02*
X120886071Y-109107142D01*
X120886071Y-108750000D01*
X120814642Y-108607142D01*
X120671785Y-108535714D01*
X120528928Y-108535714D01*
X120386071Y-108607142D01*
X120314642Y-108750000D01*
X120314642Y-109107142D01*
X120243214Y-109250000D01*
X120886071Y-109964285D02*
X119886071Y-109964285D01*
X120171785Y-109964285D02*
X120028928Y-110035714D01*
X119957500Y-110107142D01*
X119886071Y-110250000D01*
X119886071Y-110392857D01*
X119886071Y-111535714D02*
X121100357Y-111535714D01*
X121243214Y-111464285D01*
X121314642Y-111392857D01*
X121386071Y-111250000D01*
X121386071Y-111035714D01*
X121314642Y-110892857D01*
X120814642Y-111535714D02*
X120886071Y-111392857D01*
X120886071Y-111107142D01*
X120814642Y-110964285D01*
X120743214Y-110892857D01*
X120600357Y-110821428D01*
X120171785Y-110821428D01*
X120028928Y-110892857D01*
X119957500Y-110964285D01*
X119886071Y-111107142D01*
X119886071Y-111392857D01*
X119957500Y-111535714D01*
X120814642Y-112821428D02*
X120886071Y-112678571D01*
X120886071Y-112392857D01*
X120814642Y-112250000D01*
X120671785Y-112178571D01*
X120100357Y-112178571D01*
X119957500Y-112250000D01*
X119886071Y-112392857D01*
X119886071Y-112678571D01*
X119957500Y-112821428D01*
X120100357Y-112892857D01*
X120243214Y-112892857D01*
X120386071Y-112178571D01*
X120886071Y-114678571D02*
X119386071Y-114678571D01*
X119386071Y-115250000D01*
X119457500Y-115392857D01*
X119528928Y-115464285D01*
X119671785Y-115535714D01*
X119886071Y-115535714D01*
X120028928Y-115464285D01*
X120100357Y-115392857D01*
X120171785Y-115250000D01*
X120171785Y-114678571D01*
X120814642Y-116750000D02*
X120886071Y-116607142D01*
X120886071Y-116321428D01*
X120814642Y-116178571D01*
X120671785Y-116107142D01*
X120100357Y-116107142D01*
X119957500Y-116178571D01*
X119886071Y-116321428D01*
X119886071Y-116607142D01*
X119957500Y-116750000D01*
X120100357Y-116821428D01*
X120243214Y-116821428D01*
X120386071Y-116107142D01*
X120886071Y-117464285D02*
X119886071Y-117464285D01*
X120171785Y-117464285D02*
X120028928Y-117535714D01*
X119957500Y-117607142D01*
X119886071Y-117750000D01*
X119886071Y-117892857D01*
X120743214Y-120392857D02*
X120814642Y-120321428D01*
X120886071Y-120107142D01*
X120886071Y-119964285D01*
X120814642Y-119750000D01*
X120671785Y-119607142D01*
X120528928Y-119535714D01*
X120243214Y-119464285D01*
X120028928Y-119464285D01*
X119743214Y-119535714D01*
X119600357Y-119607142D01*
X119457500Y-119750000D01*
X119386071Y-119964285D01*
X119386071Y-120107142D01*
X119457500Y-120321428D01*
X119528928Y-120392857D01*
X120814642Y-121607142D02*
X120886071Y-121464285D01*
X120886071Y-121178571D01*
X120814642Y-121035714D01*
X120671785Y-120964285D01*
X120100357Y-120964285D01*
X119957500Y-121035714D01*
X119886071Y-121178571D01*
X119886071Y-121464285D01*
X119957500Y-121607142D01*
X120100357Y-121678571D01*
X120243214Y-121678571D01*
X120386071Y-120964285D01*
X120886071Y-122535714D02*
X120814642Y-122392857D01*
X120671785Y-122321428D01*
X119386071Y-122321428D01*
X120886071Y-123321428D02*
X120814642Y-123178571D01*
X120671785Y-123107142D01*
X119386071Y-123107142D01*
X120743214Y-123892857D02*
X120814642Y-123964285D01*
X120886071Y-123892857D01*
X120814642Y-123821428D01*
X120743214Y-123892857D01*
X120886071Y-123892857D01*
X119957500Y-123892857D02*
X120028928Y-123964285D01*
X120100357Y-123892857D01*
X120028928Y-123821428D01*
X119957500Y-123892857D01*
X120100357Y-123892857D01*
X120314642Y-125535714D02*
X120243214Y-125607142D01*
X120171785Y-125750000D01*
X120314642Y-126035714D01*
X120243214Y-126178571D01*
X120171785Y-126250000D01*
X119528928Y-126750000D02*
X119457500Y-126821428D01*
X119386071Y-126964285D01*
X119386071Y-127321428D01*
X119457500Y-127464285D01*
X119528928Y-127535714D01*
X119671785Y-127607142D01*
X119814642Y-127607142D01*
X120028928Y-127535714D01*
X120886071Y-126678571D01*
X120886071Y-127607142D01*
X119886071Y-128892857D02*
X120886071Y-128892857D01*
X119314642Y-128535714D02*
X120386071Y-128178571D01*
X120386071Y-129107142D01*
X120886071Y-129678571D02*
X119886071Y-129678571D01*
X120028928Y-129678571D02*
X119957500Y-129750000D01*
X119886071Y-129892857D01*
X119886071Y-130107142D01*
X119957500Y-130250000D01*
X120100357Y-130321428D01*
X120886071Y-130321428D01*
X120100357Y-130321428D02*
X119957500Y-130392857D01*
X119886071Y-130535714D01*
X119886071Y-130750000D01*
X119957500Y-130892857D01*
X120100357Y-130964285D01*
X120886071Y-130964285D01*
X120457500Y-131607142D02*
X120457500Y-132321428D01*
X120886071Y-131464285D02*
X119386071Y-131964285D01*
X120886071Y-132464285D01*
X65641071Y-107464285D02*
X64141071Y-107464285D01*
X65641071Y-108321428D01*
X64141071Y-108321428D01*
X65641071Y-109035714D02*
X64641071Y-109035714D01*
X64141071Y-109035714D02*
X64212500Y-108964285D01*
X64283928Y-109035714D01*
X64212500Y-109107142D01*
X64141071Y-109035714D01*
X64283928Y-109035714D01*
X65641071Y-109750000D02*
X64141071Y-109750000D01*
X65212500Y-110250000D01*
X64141071Y-110750000D01*
X65641071Y-110750000D01*
X65641071Y-111464285D02*
X64141071Y-111464285D01*
X64855357Y-111464285D02*
X64855357Y-112321428D01*
X65641071Y-112321428D02*
X64141071Y-112321428D01*
X65641071Y-115392857D02*
X65641071Y-115321428D01*
X65569642Y-115178571D01*
X65355357Y-114964285D01*
X64926785Y-114607142D01*
X64712500Y-114464285D01*
X64498214Y-114392857D01*
X64355357Y-114392857D01*
X64212500Y-114464285D01*
X64141071Y-114607142D01*
X64141071Y-114678571D01*
X64212500Y-114821428D01*
X64355357Y-114892857D01*
X64426785Y-114892857D01*
X64569642Y-114821428D01*
X64641071Y-114750000D01*
X64926785Y-114321428D01*
X64998214Y-114250000D01*
X65141071Y-114178571D01*
X65355357Y-114178571D01*
X65498214Y-114250000D01*
X65569642Y-114321428D01*
X65641071Y-114464285D01*
X65641071Y-114678571D01*
X65569642Y-114821428D01*
X65498214Y-114892857D01*
X65212500Y-115107142D01*
X64998214Y-115178571D01*
X64855357Y-115178571D01*
X65641071Y-117178571D02*
X64141071Y-117178571D01*
X65641071Y-118035714D01*
X64141071Y-118035714D01*
X65641071Y-118750000D02*
X64641071Y-118750000D01*
X64141071Y-118750000D02*
X64212500Y-118678571D01*
X64283928Y-118750000D01*
X64212500Y-118821428D01*
X64141071Y-118750000D01*
X64283928Y-118750000D01*
X65069642Y-119464285D02*
X65069642Y-120607142D01*
X65498214Y-122178571D02*
X65569642Y-122107142D01*
X65641071Y-121892857D01*
X65641071Y-121750000D01*
X65569642Y-121535714D01*
X65426785Y-121392857D01*
X65283928Y-121321428D01*
X64998214Y-121250000D01*
X64783928Y-121250000D01*
X64498214Y-121321428D01*
X64355357Y-121392857D01*
X64212500Y-121535714D01*
X64141071Y-121750000D01*
X64141071Y-121892857D01*
X64212500Y-122107142D01*
X64283928Y-122178571D01*
X65641071Y-123464285D02*
X64141071Y-123464285D01*
X65569642Y-123464285D02*
X65641071Y-123321428D01*
X65641071Y-123035714D01*
X65569642Y-122892857D01*
X65498214Y-122821428D01*
X65355357Y-122750000D01*
X64926785Y-122750000D01*
X64783928Y-122821428D01*
X64712500Y-122892857D01*
X64641071Y-123035714D01*
X64641071Y-123321428D01*
X64712500Y-123464285D01*
X64855357Y-125821428D02*
X64926785Y-126035714D01*
X64998214Y-126107142D01*
X65141071Y-126178571D01*
X65355357Y-126178571D01*
X65498214Y-126107142D01*
X65569642Y-126035714D01*
X65641071Y-125892857D01*
X65641071Y-125321428D01*
X64141071Y-125321428D01*
X64141071Y-125821428D01*
X64212500Y-125964285D01*
X64283928Y-126035714D01*
X64426785Y-126107142D01*
X64569642Y-126107142D01*
X64712500Y-126035714D01*
X64783928Y-125964285D01*
X64855357Y-125821428D01*
X64855357Y-125321428D01*
X65641071Y-127464285D02*
X64855357Y-127464285D01*
X64712500Y-127392857D01*
X64641071Y-127250000D01*
X64641071Y-126964285D01*
X64712500Y-126821428D01*
X65569642Y-127464285D02*
X65641071Y-127321428D01*
X65641071Y-126964285D01*
X65569642Y-126821428D01*
X65426785Y-126750000D01*
X65283928Y-126750000D01*
X65141071Y-126821428D01*
X65069642Y-126964285D01*
X65069642Y-127321428D01*
X64998214Y-127464285D01*
X64641071Y-127964285D02*
X64641071Y-128535714D01*
X64141071Y-128178571D02*
X65426785Y-128178571D01*
X65569642Y-128250000D01*
X65641071Y-128392857D01*
X65641071Y-128535714D01*
X64641071Y-128821428D02*
X64641071Y-129392857D01*
X64141071Y-129035714D02*
X65426785Y-129035714D01*
X65569642Y-129107142D01*
X65641071Y-129250000D01*
X65641071Y-129392857D01*
X65569642Y-130464285D02*
X65641071Y-130321428D01*
X65641071Y-130035714D01*
X65569642Y-129892857D01*
X65426785Y-129821428D01*
X64855357Y-129821428D01*
X64712500Y-129892857D01*
X64641071Y-130035714D01*
X64641071Y-130321428D01*
X64712500Y-130464285D01*
X64855357Y-130535714D01*
X64998214Y-130535714D01*
X65141071Y-129821428D01*
X65641071Y-131178571D02*
X64641071Y-131178571D01*
X64926785Y-131178571D02*
X64783928Y-131250000D01*
X64712500Y-131321428D01*
X64641071Y-131464285D01*
X64641071Y-131607142D01*
X64641071Y-131964285D02*
X65641071Y-132321428D01*
X64641071Y-132678571D02*
X65641071Y-132321428D01*
X65998214Y-132178571D01*
X66069642Y-132107142D01*
X66141071Y-131964285D01*
X66556071Y-111535714D02*
X66556071Y-112392857D01*
X68056071Y-111964285D02*
X66556071Y-111964285D01*
X68056071Y-112892857D02*
X67056071Y-112892857D01*
X67341785Y-112892857D02*
X67198928Y-112964285D01*
X67127500Y-113035714D01*
X67056071Y-113178571D01*
X67056071Y-113321428D01*
X68056071Y-113821428D02*
X67056071Y-113821428D01*
X66556071Y-113821428D02*
X66627500Y-113750000D01*
X66698928Y-113821428D01*
X66627500Y-113892857D01*
X66556071Y-113821428D01*
X66698928Y-113821428D01*
X67984642Y-115178571D02*
X68056071Y-115035714D01*
X68056071Y-114750000D01*
X67984642Y-114607142D01*
X67913214Y-114535714D01*
X67770357Y-114464285D01*
X67341785Y-114464285D01*
X67198928Y-114535714D01*
X67127500Y-114607142D01*
X67056071Y-114750000D01*
X67056071Y-115035714D01*
X67127500Y-115178571D01*
X68056071Y-115821428D02*
X66556071Y-115821428D01*
X67484642Y-115964285D02*
X68056071Y-116392857D01*
X67056071Y-116392857D02*
X67627500Y-115821428D01*
X68056071Y-117250000D02*
X67984642Y-117107142D01*
X67841785Y-117035714D01*
X66556071Y-117035714D01*
X67984642Y-118392857D02*
X68056071Y-118250000D01*
X68056071Y-117964285D01*
X67984642Y-117821428D01*
X67841785Y-117750000D01*
X67270357Y-117750000D01*
X67127500Y-117821428D01*
X67056071Y-117964285D01*
X67056071Y-118250000D01*
X67127500Y-118392857D01*
X67270357Y-118464285D01*
X67413214Y-118464285D01*
X67556071Y-117750000D01*
X67913214Y-121107142D02*
X67984642Y-121035714D01*
X68056071Y-120821428D01*
X68056071Y-120678571D01*
X67984642Y-120464285D01*
X67841785Y-120321428D01*
X67698928Y-120250000D01*
X67413214Y-120178571D01*
X67198928Y-120178571D01*
X66913214Y-120250000D01*
X66770357Y-120321428D01*
X66627500Y-120464285D01*
X66556071Y-120678571D01*
X66556071Y-120821428D01*
X66627500Y-121035714D01*
X66698928Y-121107142D01*
X68056071Y-121750000D02*
X66556071Y-121750000D01*
X68056071Y-122392857D02*
X67270357Y-122392857D01*
X67127500Y-122321428D01*
X67056071Y-122178571D01*
X67056071Y-121964285D01*
X67127500Y-121821428D01*
X67198928Y-121750000D01*
X68056071Y-123750000D02*
X67270357Y-123750000D01*
X67127500Y-123678571D01*
X67056071Y-123535714D01*
X67056071Y-123250000D01*
X67127500Y-123107142D01*
X67984642Y-123750000D02*
X68056071Y-123607142D01*
X68056071Y-123250000D01*
X67984642Y-123107142D01*
X67841785Y-123035714D01*
X67698928Y-123035714D01*
X67556071Y-123107142D01*
X67484642Y-123250000D01*
X67484642Y-123607142D01*
X67413214Y-123750000D01*
X68056071Y-124464285D02*
X67056071Y-124464285D01*
X67341785Y-124464285D02*
X67198928Y-124535714D01*
X67127500Y-124607142D01*
X67056071Y-124750000D01*
X67056071Y-124892857D01*
X67056071Y-126035714D02*
X68270357Y-126035714D01*
X68413214Y-125964285D01*
X68484642Y-125892857D01*
X68556071Y-125750000D01*
X68556071Y-125535714D01*
X68484642Y-125392857D01*
X67984642Y-126035714D02*
X68056071Y-125892857D01*
X68056071Y-125607142D01*
X67984642Y-125464285D01*
X67913214Y-125392857D01*
X67770357Y-125321428D01*
X67341785Y-125321428D01*
X67198928Y-125392857D01*
X67127500Y-125464285D01*
X67056071Y-125607142D01*
X67056071Y-125892857D01*
X67127500Y-126035714D01*
X67984642Y-127321428D02*
X68056071Y-127178571D01*
X68056071Y-126892857D01*
X67984642Y-126750000D01*
X67841785Y-126678571D01*
X67270357Y-126678571D01*
X67127500Y-126750000D01*
X67056071Y-126892857D01*
X67056071Y-127178571D01*
X67127500Y-127321428D01*
X67270357Y-127392857D01*
X67413214Y-127392857D01*
X67556071Y-126678571D01*
X68056071Y-128035714D02*
X67056071Y-128035714D01*
X67341785Y-128035714D02*
X67198928Y-128107142D01*
X67127500Y-128178571D01*
X67056071Y-128321428D01*
X67056071Y-128464285D01*
X68971071Y-110250000D02*
X68971071Y-111107142D01*
X70471071Y-110678571D02*
X68971071Y-110678571D01*
X70471071Y-111607142D02*
X68971071Y-111607142D01*
X70471071Y-112250000D02*
X69685357Y-112250000D01*
X69542500Y-112178571D01*
X69471071Y-112035714D01*
X69471071Y-111821428D01*
X69542500Y-111678571D01*
X69613928Y-111607142D01*
X70471071Y-113178571D02*
X70399642Y-113035714D01*
X70328214Y-112964285D01*
X70185357Y-112892857D01*
X69756785Y-112892857D01*
X69613928Y-112964285D01*
X69542500Y-113035714D01*
X69471071Y-113178571D01*
X69471071Y-113392857D01*
X69542500Y-113535714D01*
X69613928Y-113607142D01*
X69756785Y-113678571D01*
X70185357Y-113678571D01*
X70328214Y-113607142D01*
X70399642Y-113535714D01*
X70471071Y-113392857D01*
X70471071Y-113178571D01*
X70471071Y-114321428D02*
X69471071Y-114321428D01*
X69613928Y-114321428D02*
X69542500Y-114392857D01*
X69471071Y-114535714D01*
X69471071Y-114750000D01*
X69542500Y-114892857D01*
X69685357Y-114964285D01*
X70471071Y-114964285D01*
X69685357Y-114964285D02*
X69542500Y-115035714D01*
X69471071Y-115178571D01*
X69471071Y-115392857D01*
X69542500Y-115535714D01*
X69685357Y-115607142D01*
X70471071Y-115607142D01*
X70471071Y-116964285D02*
X69685357Y-116964285D01*
X69542500Y-116892857D01*
X69471071Y-116750000D01*
X69471071Y-116464285D01*
X69542500Y-116321428D01*
X70399642Y-116964285D02*
X70471071Y-116821428D01*
X70471071Y-116464285D01*
X70399642Y-116321428D01*
X70256785Y-116250000D01*
X70113928Y-116250000D01*
X69971071Y-116321428D01*
X69899642Y-116464285D01*
X69899642Y-116821428D01*
X69828214Y-116964285D01*
X70399642Y-117607142D02*
X70471071Y-117750000D01*
X70471071Y-118035714D01*
X70399642Y-118178571D01*
X70256785Y-118250000D01*
X70185357Y-118250000D01*
X70042500Y-118178571D01*
X69971071Y-118035714D01*
X69971071Y-117821428D01*
X69899642Y-117678571D01*
X69756785Y-117607142D01*
X69685357Y-117607142D01*
X69542500Y-117678571D01*
X69471071Y-117821428D01*
X69471071Y-118035714D01*
X69542500Y-118178571D01*
X69685357Y-120535714D02*
X69756785Y-120750000D01*
X69828214Y-120821428D01*
X69971071Y-120892857D01*
X70185357Y-120892857D01*
X70328214Y-120821428D01*
X70399642Y-120750000D01*
X70471071Y-120607142D01*
X70471071Y-120035714D01*
X68971071Y-120035714D01*
X68971071Y-120535714D01*
X69042500Y-120678571D01*
X69113928Y-120750000D01*
X69256785Y-120821428D01*
X69399642Y-120821428D01*
X69542500Y-120750000D01*
X69613928Y-120678571D01*
X69685357Y-120535714D01*
X69685357Y-120035714D01*
X69471071Y-121392857D02*
X70471071Y-121750000D01*
X69471071Y-122107142D02*
X70471071Y-121750000D01*
X70828214Y-121607142D01*
X70899642Y-121535714D01*
X70971071Y-121392857D01*
X69471071Y-122464285D02*
X69471071Y-123035714D01*
X68971071Y-122678571D02*
X70256785Y-122678571D01*
X70399642Y-122750000D01*
X70471071Y-122892857D01*
X70471071Y-123035714D01*
X70471071Y-123535714D02*
X68971071Y-123535714D01*
X70471071Y-124178571D02*
X69685357Y-124178571D01*
X69542500Y-124107142D01*
X69471071Y-123964285D01*
X69471071Y-123750000D01*
X69542500Y-123607142D01*
X69613928Y-123535714D01*
X70399642Y-125464285D02*
X70471071Y-125321428D01*
X70471071Y-125035714D01*
X70399642Y-124892857D01*
X70256785Y-124821428D01*
X69685357Y-124821428D01*
X69542500Y-124892857D01*
X69471071Y-125035714D01*
X69471071Y-125321428D01*
X69542500Y-125464285D01*
X69685357Y-125535714D01*
X69828214Y-125535714D01*
X69971071Y-124821428D01*
X69471071Y-126035714D02*
X70471071Y-126321428D01*
X69756785Y-126607142D01*
X70471071Y-126892857D01*
X69471071Y-127178571D01*
X70471071Y-128392857D02*
X69685357Y-128392857D01*
X69542500Y-128321428D01*
X69471071Y-128178571D01*
X69471071Y-127892857D01*
X69542500Y-127750000D01*
X70399642Y-128392857D02*
X70471071Y-128250000D01*
X70471071Y-127892857D01*
X70399642Y-127750000D01*
X70256785Y-127678571D01*
X70113928Y-127678571D01*
X69971071Y-127750000D01*
X69899642Y-127892857D01*
X69899642Y-128250000D01*
X69828214Y-128392857D01*
X69471071Y-128964285D02*
X70471071Y-129321428D01*
X69471071Y-129678571D02*
X70471071Y-129321428D01*
X70828214Y-129178571D01*
X70899642Y-129107142D01*
X70971071Y-128964285D01*
X71886071Y-101285714D02*
X73100357Y-101285714D01*
X73243214Y-101214285D01*
X73314642Y-101142857D01*
X73386071Y-101000000D01*
X73386071Y-100785714D01*
X73314642Y-100642857D01*
X72814642Y-101285714D02*
X72886071Y-101142857D01*
X72886071Y-100857142D01*
X72814642Y-100714285D01*
X72743214Y-100642857D01*
X72600357Y-100571428D01*
X72171785Y-100571428D01*
X72028928Y-100642857D01*
X71957500Y-100714285D01*
X71886071Y-100857142D01*
X71886071Y-101142857D01*
X71957500Y-101285714D01*
X72886071Y-102000000D02*
X71386071Y-102000000D01*
X72886071Y-102642857D02*
X72100357Y-102642857D01*
X71957500Y-102571428D01*
X71886071Y-102428571D01*
X71886071Y-102214285D01*
X71957500Y-102071428D01*
X72028928Y-102000000D01*
X71886071Y-104000000D02*
X72886071Y-104000000D01*
X71886071Y-103357142D02*
X72671785Y-103357142D01*
X72814642Y-103428571D01*
X72886071Y-103571428D01*
X72886071Y-103785714D01*
X72814642Y-103928571D01*
X72743214Y-104000000D01*
X72886071Y-104714285D02*
X71386071Y-104714285D01*
X71957500Y-104714285D02*
X71886071Y-104857142D01*
X71886071Y-105142857D01*
X71957500Y-105285714D01*
X72028928Y-105357142D01*
X72171785Y-105428571D01*
X72600357Y-105428571D01*
X72743214Y-105357142D01*
X72814642Y-105285714D01*
X72886071Y-105142857D01*
X72886071Y-104857142D01*
X72814642Y-104714285D01*
X72743214Y-106071428D02*
X72814642Y-106142857D01*
X72886071Y-106071428D01*
X72814642Y-106000000D01*
X72743214Y-106071428D01*
X72886071Y-106071428D01*
X71957500Y-106071428D02*
X72028928Y-106142857D01*
X72100357Y-106071428D01*
X72028928Y-106000000D01*
X71957500Y-106071428D01*
X72100357Y-106071428D01*
X72886071Y-106785714D02*
X71386071Y-106785714D01*
X72100357Y-106785714D02*
X72100357Y-107642857D01*
X72886071Y-107642857D02*
X71386071Y-107642857D01*
X72886071Y-109000000D02*
X72100357Y-109000000D01*
X71957500Y-108928571D01*
X71886071Y-108785714D01*
X71886071Y-108500000D01*
X71957500Y-108357142D01*
X72814642Y-109000000D02*
X72886071Y-108857142D01*
X72886071Y-108500000D01*
X72814642Y-108357142D01*
X72671785Y-108285714D01*
X72528928Y-108285714D01*
X72386071Y-108357142D01*
X72314642Y-108500000D01*
X72314642Y-108857142D01*
X72243214Y-109000000D01*
X72886071Y-109714285D02*
X71886071Y-109714285D01*
X72171785Y-109714285D02*
X72028928Y-109785714D01*
X71957500Y-109857142D01*
X71886071Y-110000000D01*
X71886071Y-110142857D01*
X72886071Y-110642857D02*
X71386071Y-110642857D01*
X72314642Y-110785714D02*
X72886071Y-111214285D01*
X71886071Y-111214285D02*
X72457500Y-110642857D01*
X72886071Y-112071428D02*
X72814642Y-111928571D01*
X72743214Y-111857142D01*
X72600357Y-111785714D01*
X72171785Y-111785714D01*
X72028928Y-111857142D01*
X71957500Y-111928571D01*
X71886071Y-112071428D01*
X71886071Y-112285714D01*
X71957500Y-112428571D01*
X72028928Y-112500000D01*
X72171785Y-112571428D01*
X72600357Y-112571428D01*
X72743214Y-112500000D01*
X72814642Y-112428571D01*
X72886071Y-112285714D01*
X72886071Y-112071428D01*
X71886071Y-113214285D02*
X72886071Y-113214285D01*
X72028928Y-113214285D02*
X71957500Y-113285714D01*
X71886071Y-113428571D01*
X71886071Y-113642857D01*
X71957500Y-113785714D01*
X72100357Y-113857142D01*
X72886071Y-113857142D01*
X72814642Y-115142857D02*
X72886071Y-115000000D01*
X72886071Y-114714285D01*
X72814642Y-114571428D01*
X72671785Y-114500000D01*
X72100357Y-114500000D01*
X71957500Y-114571428D01*
X71886071Y-114714285D01*
X71886071Y-115000000D01*
X71957500Y-115142857D01*
X72100357Y-115214285D01*
X72243214Y-115214285D01*
X72386071Y-114500000D01*
X71886071Y-115857142D02*
X72886071Y-115857142D01*
X72028928Y-115857142D02*
X71957500Y-115928571D01*
X71886071Y-116071428D01*
X71886071Y-116285714D01*
X71957500Y-116428571D01*
X72100357Y-116500000D01*
X72886071Y-116500000D01*
X72100357Y-117714285D02*
X72171785Y-117928571D01*
X72243214Y-118000000D01*
X72386071Y-118071428D01*
X72600357Y-118071428D01*
X72743214Y-118000000D01*
X72814642Y-117928571D01*
X72886071Y-117785714D01*
X72886071Y-117214285D01*
X71386071Y-117214285D01*
X71386071Y-117714285D01*
X71457500Y-117857142D01*
X71528928Y-117928571D01*
X71671785Y-118000000D01*
X71814642Y-118000000D01*
X71957500Y-117928571D01*
X72028928Y-117857142D01*
X72100357Y-117714285D01*
X72100357Y-117214285D01*
X72886071Y-119357142D02*
X72100357Y-119357142D01*
X71957500Y-119285714D01*
X71886071Y-119142857D01*
X71886071Y-118857142D01*
X71957500Y-118714285D01*
X72814642Y-119357142D02*
X72886071Y-119214285D01*
X72886071Y-118857142D01*
X72814642Y-118714285D01*
X72671785Y-118642857D01*
X72528928Y-118642857D01*
X72386071Y-118714285D01*
X72314642Y-118857142D01*
X72314642Y-119214285D01*
X72243214Y-119357142D01*
X72886071Y-120714285D02*
X71386071Y-120714285D01*
X72814642Y-120714285D02*
X72886071Y-120571428D01*
X72886071Y-120285714D01*
X72814642Y-120142857D01*
X72743214Y-120071428D01*
X72600357Y-120000000D01*
X72171785Y-120000000D01*
X72028928Y-120071428D01*
X71957500Y-120142857D01*
X71886071Y-120285714D01*
X71886071Y-120571428D01*
X71957500Y-120714285D01*
X72814642Y-122000000D02*
X72886071Y-121857142D01*
X72886071Y-121571428D01*
X72814642Y-121428571D01*
X72671785Y-121357142D01*
X72100357Y-121357142D01*
X71957500Y-121428571D01*
X71886071Y-121571428D01*
X71886071Y-121857142D01*
X71957500Y-122000000D01*
X72100357Y-122071428D01*
X72243214Y-122071428D01*
X72386071Y-121357142D01*
X71314642Y-123785714D02*
X73243214Y-122500000D01*
X71886071Y-124285714D02*
X72886071Y-124285714D01*
X72028928Y-124285714D02*
X71957500Y-124357142D01*
X71886071Y-124500000D01*
X71886071Y-124714285D01*
X71957500Y-124857142D01*
X72100357Y-124928571D01*
X72886071Y-124928571D01*
X72886071Y-125642857D02*
X71886071Y-125642857D01*
X71386071Y-125642857D02*
X71457500Y-125571428D01*
X71528928Y-125642857D01*
X71457500Y-125714285D01*
X71386071Y-125642857D01*
X71528928Y-125642857D01*
X72886071Y-126357142D02*
X71886071Y-126357142D01*
X72028928Y-126357142D02*
X71957500Y-126428571D01*
X71886071Y-126571428D01*
X71886071Y-126785714D01*
X71957500Y-126928571D01*
X72100357Y-127000000D01*
X72886071Y-127000000D01*
X72100357Y-127000000D02*
X71957500Y-127071428D01*
X71886071Y-127214285D01*
X71886071Y-127428571D01*
X71957500Y-127571428D01*
X72100357Y-127642857D01*
X72886071Y-127642857D01*
X72886071Y-128357142D02*
X71386071Y-128357142D01*
X72886071Y-129000000D02*
X72100357Y-129000000D01*
X71957500Y-128928571D01*
X71886071Y-128785714D01*
X71886071Y-128571428D01*
X71957500Y-128428571D01*
X72028928Y-128357142D01*
X72314642Y-129714285D02*
X72314642Y-130857142D01*
X72814642Y-132214285D02*
X72886071Y-132071428D01*
X72886071Y-131785714D01*
X72814642Y-131642857D01*
X72743214Y-131571428D01*
X72600357Y-131500000D01*
X72171785Y-131500000D01*
X72028928Y-131571428D01*
X71957500Y-131642857D01*
X71886071Y-131785714D01*
X71886071Y-132071428D01*
X71957500Y-132214285D01*
X72886071Y-132857142D02*
X71386071Y-132857142D01*
X72886071Y-133500000D02*
X72100357Y-133500000D01*
X71957500Y-133428571D01*
X71886071Y-133285714D01*
X71886071Y-133071428D01*
X71957500Y-132928571D01*
X72028928Y-132857142D01*
X72886071Y-134857142D02*
X72100357Y-134857142D01*
X71957500Y-134785714D01*
X71886071Y-134642857D01*
X71886071Y-134357142D01*
X71957500Y-134214285D01*
X72814642Y-134857142D02*
X72886071Y-134714285D01*
X72886071Y-134357142D01*
X72814642Y-134214285D01*
X72671785Y-134142857D01*
X72528928Y-134142857D01*
X72386071Y-134214285D01*
X72314642Y-134357142D01*
X72314642Y-134714285D01*
X72243214Y-134857142D01*
X72886071Y-135571428D02*
X71886071Y-135571428D01*
X72171785Y-135571428D02*
X72028928Y-135642857D01*
X71957500Y-135714285D01*
X71886071Y-135857142D01*
X71886071Y-136000000D01*
X71886071Y-137142857D02*
X73100357Y-137142857D01*
X73243214Y-137071428D01*
X73314642Y-137000000D01*
X73386071Y-136857142D01*
X73386071Y-136642857D01*
X73314642Y-136500000D01*
X72814642Y-137142857D02*
X72886071Y-137000000D01*
X72886071Y-136714285D01*
X72814642Y-136571428D01*
X72743214Y-136500000D01*
X72600357Y-136428571D01*
X72171785Y-136428571D01*
X72028928Y-136500000D01*
X71957500Y-136571428D01*
X71886071Y-136714285D01*
X71886071Y-137000000D01*
X71957500Y-137142857D01*
X72814642Y-138428571D02*
X72886071Y-138285714D01*
X72886071Y-138000000D01*
X72814642Y-137857142D01*
X72671785Y-137785714D01*
X72100357Y-137785714D01*
X71957500Y-137857142D01*
X71886071Y-138000000D01*
X71886071Y-138285714D01*
X71957500Y-138428571D01*
X72100357Y-138500000D01*
X72243214Y-138500000D01*
X72386071Y-137785714D01*
X72886071Y-139142857D02*
X71886071Y-139142857D01*
X72171785Y-139142857D02*
X72028928Y-139214285D01*
X71957500Y-139285714D01*
X71886071Y-139428571D01*
X71886071Y-139571428D01*
X75301071Y-117392857D02*
X74301071Y-117392857D01*
X74586785Y-117392857D02*
X74443928Y-117464285D01*
X74372500Y-117535714D01*
X74301071Y-117678571D01*
X74301071Y-117821428D01*
X75229642Y-118892857D02*
X75301071Y-118750000D01*
X75301071Y-118464285D01*
X75229642Y-118321428D01*
X75086785Y-118250000D01*
X74515357Y-118250000D01*
X74372500Y-118321428D01*
X74301071Y-118464285D01*
X74301071Y-118750000D01*
X74372500Y-118892857D01*
X74515357Y-118964285D01*
X74658214Y-118964285D01*
X74801071Y-118250000D01*
X74301071Y-119464285D02*
X75301071Y-119821428D01*
X74301071Y-120178571D01*
X75301071Y-122678571D02*
X75301071Y-121821428D01*
X75301071Y-122250000D02*
X73801071Y-122250000D01*
X74015357Y-122107142D01*
X74158214Y-121964285D01*
X74229642Y-121821428D01*
X76358928Y-112714285D02*
X76287500Y-112785714D01*
X76216071Y-112928571D01*
X76216071Y-113285714D01*
X76287500Y-113428571D01*
X76358928Y-113500000D01*
X76501785Y-113571428D01*
X76644642Y-113571428D01*
X76858928Y-113500000D01*
X77716071Y-112642857D01*
X77716071Y-113571428D01*
X76216071Y-114500000D02*
X76216071Y-114642857D01*
X76287500Y-114785714D01*
X76358928Y-114857142D01*
X76501785Y-114928571D01*
X76787500Y-115000000D01*
X77144642Y-115000000D01*
X77430357Y-114928571D01*
X77573214Y-114857142D01*
X77644642Y-114785714D01*
X77716071Y-114642857D01*
X77716071Y-114500000D01*
X77644642Y-114357142D01*
X77573214Y-114285714D01*
X77430357Y-114214285D01*
X77144642Y-114142857D01*
X76787500Y-114142857D01*
X76501785Y-114214285D01*
X76358928Y-114285714D01*
X76287500Y-114357142D01*
X76216071Y-114500000D01*
X76358928Y-115571428D02*
X76287500Y-115642857D01*
X76216071Y-115785714D01*
X76216071Y-116142857D01*
X76287500Y-116285714D01*
X76358928Y-116357142D01*
X76501785Y-116428571D01*
X76644642Y-116428571D01*
X76858928Y-116357142D01*
X77716071Y-115500000D01*
X77716071Y-116428571D01*
X76358928Y-117000000D02*
X76287500Y-117071428D01*
X76216071Y-117214285D01*
X76216071Y-117571428D01*
X76287500Y-117714285D01*
X76358928Y-117785714D01*
X76501785Y-117857142D01*
X76644642Y-117857142D01*
X76858928Y-117785714D01*
X77716071Y-116928571D01*
X77716071Y-117857142D01*
X77144642Y-118500000D02*
X77144642Y-119642857D01*
X76216071Y-120642857D02*
X76216071Y-120785714D01*
X76287500Y-120928571D01*
X76358928Y-121000000D01*
X76501785Y-121071428D01*
X76787500Y-121142857D01*
X77144642Y-121142857D01*
X77430357Y-121071428D01*
X77573214Y-121000000D01*
X77644642Y-120928571D01*
X77716071Y-120785714D01*
X77716071Y-120642857D01*
X77644642Y-120500000D01*
X77573214Y-120428571D01*
X77430357Y-120357142D01*
X77144642Y-120285714D01*
X76787500Y-120285714D01*
X76501785Y-120357142D01*
X76358928Y-120428571D01*
X76287500Y-120500000D01*
X76216071Y-120642857D01*
X76216071Y-121642857D02*
X76216071Y-122571428D01*
X76787500Y-122071428D01*
X76787500Y-122285714D01*
X76858928Y-122428571D01*
X76930357Y-122500000D01*
X77073214Y-122571428D01*
X77430357Y-122571428D01*
X77573214Y-122500000D01*
X77644642Y-122428571D01*
X77716071Y-122285714D01*
X77716071Y-121857142D01*
X77644642Y-121714285D01*
X77573214Y-121642857D01*
X77144642Y-123214285D02*
X77144642Y-124357142D01*
X76358928Y-125000000D02*
X76287500Y-125071428D01*
X76216071Y-125214285D01*
X76216071Y-125571428D01*
X76287500Y-125714285D01*
X76358928Y-125785714D01*
X76501785Y-125857142D01*
X76644642Y-125857142D01*
X76858928Y-125785714D01*
X77716071Y-124928571D01*
X77716071Y-125857142D01*
X76216071Y-127214285D02*
X76216071Y-126500000D01*
X76930357Y-126428571D01*
X76858928Y-126500000D01*
X76787500Y-126642857D01*
X76787500Y-127000000D01*
X76858928Y-127142857D01*
X76930357Y-127214285D01*
X77073214Y-127285714D01*
X77430357Y-127285714D01*
X77573214Y-127214285D01*
X77644642Y-127142857D01*
X77716071Y-127000000D01*
X77716071Y-126642857D01*
X77644642Y-126500000D01*
X77573214Y-126428571D01*
D11*
%TO.C,TP2*%
X97500000Y-132188095D02*
X97452380Y-132092857D01*
X97452380Y-131950000D01*
X97500000Y-131807142D01*
X97595238Y-131711904D01*
X97690476Y-131664285D01*
X97880952Y-131616666D01*
X98023809Y-131616666D01*
X98214285Y-131664285D01*
X98309523Y-131711904D01*
X98404761Y-131807142D01*
X98452380Y-131950000D01*
X98452380Y-132045238D01*
X98404761Y-132188095D01*
X98357142Y-132235714D01*
X98023809Y-132235714D01*
X98023809Y-132045238D01*
X98452380Y-132664285D02*
X97452380Y-132664285D01*
X98452380Y-133235714D01*
X97452380Y-133235714D01*
X98452380Y-133711904D02*
X97452380Y-133711904D01*
X97452380Y-133950000D01*
X97500000Y-134092857D01*
X97595238Y-134188095D01*
X97690476Y-134235714D01*
X97880952Y-134283333D01*
X98023809Y-134283333D01*
X98214285Y-134235714D01*
X98309523Y-134188095D01*
X98404761Y-134092857D01*
X98452380Y-133950000D01*
X98452380Y-133711904D01*
%TO.C,TP1*%
X91452380Y-132809523D02*
X91452380Y-132333333D01*
X91928571Y-132285714D01*
X91880952Y-132333333D01*
X91833333Y-132428571D01*
X91833333Y-132666666D01*
X91880952Y-132761904D01*
X91928571Y-132809523D01*
X92023809Y-132857142D01*
X92261904Y-132857142D01*
X92357142Y-132809523D01*
X92404761Y-132761904D01*
X92452380Y-132666666D01*
X92452380Y-132428571D01*
X92404761Y-132333333D01*
X92357142Y-132285714D01*
X91452380Y-133142857D02*
X92452380Y-133476190D01*
X91452380Y-133809523D01*
D12*
%TO.C,TP2*%
X99160000Y-127885000D02*
X99160000Y-138015000D01*
X96840000Y-127885000D02*
X96840000Y-138015000D01*
%TO.C,TP1*%
X93160000Y-127885000D02*
X93160000Y-138015000D01*
X90840000Y-127885000D02*
X90840000Y-138015000D01*
%TD*%
M02*
