%TF.GenerationSoftware,KiCad,Pcbnew,(6.0.2)*%
%TF.CreationDate,2022-03-25T11:37:34+00:00*%
%TF.ProjectId,nimh-charger,6e696d68-2d63-4686-9172-6765722e6b69,rev?*%
%TF.SameCoordinates,Original*%
%TF.FileFunction,Legend,Top*%
%TF.FilePolarity,Positive*%
%FSLAX46Y46*%
G04 Gerber Fmt 4.6, Leading zero omitted, Abs format (unit mm)*
G04 Created by KiCad (PCBNEW (6.0.2)) date 2022-03-25 11:37:34*
%MOMM*%
%LPD*%
G01*
G04 APERTURE LIST*
%ADD10C,0.150000*%
%ADD11C,0.120000*%
G04 APERTURE END LIST*
D10*
%TO.C,R9*%
X134452380Y-79866666D02*
X133976190Y-80200000D01*
X134452380Y-80438095D02*
X133452380Y-80438095D01*
X133452380Y-80057142D01*
X133500000Y-79961904D01*
X133547619Y-79914285D01*
X133642857Y-79866666D01*
X133785714Y-79866666D01*
X133880952Y-79914285D01*
X133928571Y-79961904D01*
X133976190Y-80057142D01*
X133976190Y-80438095D01*
X134452380Y-79390476D02*
X134452380Y-79200000D01*
X134404761Y-79104761D01*
X134357142Y-79057142D01*
X134214285Y-78961904D01*
X134023809Y-78914285D01*
X133642857Y-78914285D01*
X133547619Y-78961904D01*
X133500000Y-79009523D01*
X133452380Y-79104761D01*
X133452380Y-79295238D01*
X133500000Y-79390476D01*
X133547619Y-79438095D01*
X133642857Y-79485714D01*
X133880952Y-79485714D01*
X133976190Y-79438095D01*
X134023809Y-79390476D01*
X134071428Y-79295238D01*
X134071428Y-79104761D01*
X134023809Y-79009523D01*
X133976190Y-78961904D01*
X133880952Y-78914285D01*
%TO.C,R8*%
X114952380Y-79866666D02*
X114476190Y-80200000D01*
X114952380Y-80438095D02*
X113952380Y-80438095D01*
X113952380Y-80057142D01*
X114000000Y-79961904D01*
X114047619Y-79914285D01*
X114142857Y-79866666D01*
X114285714Y-79866666D01*
X114380952Y-79914285D01*
X114428571Y-79961904D01*
X114476190Y-80057142D01*
X114476190Y-80438095D01*
X114380952Y-79295238D02*
X114333333Y-79390476D01*
X114285714Y-79438095D01*
X114190476Y-79485714D01*
X114142857Y-79485714D01*
X114047619Y-79438095D01*
X114000000Y-79390476D01*
X113952380Y-79295238D01*
X113952380Y-79104761D01*
X114000000Y-79009523D01*
X114047619Y-78961904D01*
X114142857Y-78914285D01*
X114190476Y-78914285D01*
X114285714Y-78961904D01*
X114333333Y-79009523D01*
X114380952Y-79104761D01*
X114380952Y-79295238D01*
X114428571Y-79390476D01*
X114476190Y-79438095D01*
X114571428Y-79485714D01*
X114761904Y-79485714D01*
X114857142Y-79438095D01*
X114904761Y-79390476D01*
X114952380Y-79295238D01*
X114952380Y-79104761D01*
X114904761Y-79009523D01*
X114857142Y-78961904D01*
X114761904Y-78914285D01*
X114571428Y-78914285D01*
X114476190Y-78961904D01*
X114428571Y-79009523D01*
X114380952Y-79104761D01*
%TO.C,R7*%
X85952380Y-79866666D02*
X85476190Y-80200000D01*
X85952380Y-80438095D02*
X84952380Y-80438095D01*
X84952380Y-80057142D01*
X85000000Y-79961904D01*
X85047619Y-79914285D01*
X85142857Y-79866666D01*
X85285714Y-79866666D01*
X85380952Y-79914285D01*
X85428571Y-79961904D01*
X85476190Y-80057142D01*
X85476190Y-80438095D01*
X84952380Y-79533333D02*
X84952380Y-78866666D01*
X85952380Y-79295238D01*
%TO.C,R6*%
X66452380Y-79866666D02*
X65976190Y-80200000D01*
X66452380Y-80438095D02*
X65452380Y-80438095D01*
X65452380Y-80057142D01*
X65500000Y-79961904D01*
X65547619Y-79914285D01*
X65642857Y-79866666D01*
X65785714Y-79866666D01*
X65880952Y-79914285D01*
X65928571Y-79961904D01*
X65976190Y-80057142D01*
X65976190Y-80438095D01*
X65452380Y-79009523D02*
X65452380Y-79200000D01*
X65500000Y-79295238D01*
X65547619Y-79342857D01*
X65690476Y-79438095D01*
X65880952Y-79485714D01*
X66261904Y-79485714D01*
X66357142Y-79438095D01*
X66404761Y-79390476D01*
X66452380Y-79295238D01*
X66452380Y-79104761D01*
X66404761Y-79009523D01*
X66357142Y-78961904D01*
X66261904Y-78914285D01*
X66023809Y-78914285D01*
X65928571Y-78961904D01*
X65880952Y-79009523D01*
X65833333Y-79104761D01*
X65833333Y-79295238D01*
X65880952Y-79390476D01*
X65928571Y-79438095D01*
X66023809Y-79485714D01*
%TO.C,R5*%
X129452380Y-79866666D02*
X128976190Y-80200000D01*
X129452380Y-80438095D02*
X128452380Y-80438095D01*
X128452380Y-80057142D01*
X128500000Y-79961904D01*
X128547619Y-79914285D01*
X128642857Y-79866666D01*
X128785714Y-79866666D01*
X128880952Y-79914285D01*
X128928571Y-79961904D01*
X128976190Y-80057142D01*
X128976190Y-80438095D01*
X128452380Y-78961904D02*
X128452380Y-79438095D01*
X128928571Y-79485714D01*
X128880952Y-79438095D01*
X128833333Y-79342857D01*
X128833333Y-79104761D01*
X128880952Y-79009523D01*
X128928571Y-78961904D01*
X129023809Y-78914285D01*
X129261904Y-78914285D01*
X129357142Y-78961904D01*
X129404761Y-79009523D01*
X129452380Y-79104761D01*
X129452380Y-79342857D01*
X129404761Y-79438095D01*
X129357142Y-79485714D01*
%TO.C,R4*%
X109952380Y-79866666D02*
X109476190Y-80200000D01*
X109952380Y-80438095D02*
X108952380Y-80438095D01*
X108952380Y-80057142D01*
X109000000Y-79961904D01*
X109047619Y-79914285D01*
X109142857Y-79866666D01*
X109285714Y-79866666D01*
X109380952Y-79914285D01*
X109428571Y-79961904D01*
X109476190Y-80057142D01*
X109476190Y-80438095D01*
X109285714Y-79009523D02*
X109952380Y-79009523D01*
X108904761Y-79247619D02*
X109619047Y-79485714D01*
X109619047Y-78866666D01*
%TO.C,R3*%
X80952380Y-79866666D02*
X80476190Y-80200000D01*
X80952380Y-80438095D02*
X79952380Y-80438095D01*
X79952380Y-80057142D01*
X80000000Y-79961904D01*
X80047619Y-79914285D01*
X80142857Y-79866666D01*
X80285714Y-79866666D01*
X80380952Y-79914285D01*
X80428571Y-79961904D01*
X80476190Y-80057142D01*
X80476190Y-80438095D01*
X79952380Y-79533333D02*
X79952380Y-78914285D01*
X80333333Y-79247619D01*
X80333333Y-79104761D01*
X80380952Y-79009523D01*
X80428571Y-78961904D01*
X80523809Y-78914285D01*
X80761904Y-78914285D01*
X80857142Y-78961904D01*
X80904761Y-79009523D01*
X80952380Y-79104761D01*
X80952380Y-79390476D01*
X80904761Y-79485714D01*
X80857142Y-79533333D01*
%TO.C,R2*%
X61452380Y-79866666D02*
X60976190Y-80200000D01*
X61452380Y-80438095D02*
X60452380Y-80438095D01*
X60452380Y-80057142D01*
X60500000Y-79961904D01*
X60547619Y-79914285D01*
X60642857Y-79866666D01*
X60785714Y-79866666D01*
X60880952Y-79914285D01*
X60928571Y-79961904D01*
X60976190Y-80057142D01*
X60976190Y-80438095D01*
X60547619Y-79485714D02*
X60500000Y-79438095D01*
X60452380Y-79342857D01*
X60452380Y-79104761D01*
X60500000Y-79009523D01*
X60547619Y-78961904D01*
X60642857Y-78914285D01*
X60738095Y-78914285D01*
X60880952Y-78961904D01*
X61452380Y-79533333D01*
X61452380Y-78914285D01*
%TO.C,R1*%
X95452380Y-103016666D02*
X94976190Y-103350000D01*
X95452380Y-103588095D02*
X94452380Y-103588095D01*
X94452380Y-103207142D01*
X94500000Y-103111904D01*
X94547619Y-103064285D01*
X94642857Y-103016666D01*
X94785714Y-103016666D01*
X94880952Y-103064285D01*
X94928571Y-103111904D01*
X94976190Y-103207142D01*
X94976190Y-103588095D01*
X95452380Y-102064285D02*
X95452380Y-102635714D01*
X95452380Y-102350000D02*
X94452380Y-102350000D01*
X94595238Y-102445238D01*
X94690476Y-102540476D01*
X94738095Y-102635714D01*
%TO.C,D9*%
X133412380Y-69008095D02*
X132412380Y-69008095D01*
X132412380Y-68770000D01*
X132460000Y-68627142D01*
X132555238Y-68531904D01*
X132650476Y-68484285D01*
X132840952Y-68436666D01*
X132983809Y-68436666D01*
X133174285Y-68484285D01*
X133269523Y-68531904D01*
X133364761Y-68627142D01*
X133412380Y-68770000D01*
X133412380Y-69008095D01*
X133412380Y-67960476D02*
X133412380Y-67770000D01*
X133364761Y-67674761D01*
X133317142Y-67627142D01*
X133174285Y-67531904D01*
X132983809Y-67484285D01*
X132602857Y-67484285D01*
X132507619Y-67531904D01*
X132460000Y-67579523D01*
X132412380Y-67674761D01*
X132412380Y-67865238D01*
X132460000Y-67960476D01*
X132507619Y-68008095D01*
X132602857Y-68055714D01*
X132840952Y-68055714D01*
X132936190Y-68008095D01*
X132983809Y-67960476D01*
X133031428Y-67865238D01*
X133031428Y-67674761D01*
X132983809Y-67579523D01*
X132936190Y-67531904D01*
X132840952Y-67484285D01*
X128309523Y-64817142D02*
X128261904Y-64864761D01*
X128119047Y-64912380D01*
X128023809Y-64912380D01*
X127880952Y-64864761D01*
X127785714Y-64769523D01*
X127738095Y-64674285D01*
X127690476Y-64483809D01*
X127690476Y-64340952D01*
X127738095Y-64150476D01*
X127785714Y-64055238D01*
X127880952Y-63960000D01*
X128023809Y-63912380D01*
X128119047Y-63912380D01*
X128261904Y-63960000D01*
X128309523Y-64007619D01*
X128738095Y-64912380D02*
X128738095Y-63912380D01*
X128738095Y-64388571D02*
X129309523Y-64388571D01*
X129309523Y-64912380D02*
X129309523Y-63912380D01*
X130214285Y-64245714D02*
X130214285Y-64912380D01*
X129976190Y-63864761D02*
X129738095Y-64579047D01*
X130357142Y-64579047D01*
%TO.C,J1*%
X94666666Y-145952380D02*
X94666666Y-146666666D01*
X94619047Y-146809523D01*
X94523809Y-146904761D01*
X94380952Y-146952380D01*
X94285714Y-146952380D01*
X95666666Y-146952380D02*
X95095238Y-146952380D01*
X95380952Y-146952380D02*
X95380952Y-145952380D01*
X95285714Y-146095238D01*
X95190476Y-146190476D01*
X95095238Y-146238095D01*
X92523809Y-142952380D02*
X92523809Y-141952380D01*
X92904761Y-141952380D01*
X93000000Y-142000000D01*
X93047619Y-142047619D01*
X93095238Y-142142857D01*
X93095238Y-142285714D01*
X93047619Y-142380952D01*
X93000000Y-142428571D01*
X92904761Y-142476190D01*
X92523809Y-142476190D01*
X93428571Y-141952380D02*
X93666666Y-142952380D01*
X93857142Y-142238095D01*
X94047619Y-142952380D01*
X94285714Y-141952380D01*
X95238095Y-142952380D02*
X94904761Y-142476190D01*
X94666666Y-142952380D02*
X94666666Y-141952380D01*
X95047619Y-141952380D01*
X95142857Y-142000000D01*
X95190476Y-142047619D01*
X95238095Y-142142857D01*
X95238095Y-142285714D01*
X95190476Y-142380952D01*
X95142857Y-142428571D01*
X95047619Y-142476190D01*
X94666666Y-142476190D01*
X95428571Y-143047619D02*
X96190476Y-143047619D01*
X96428571Y-142952380D02*
X96428571Y-141952380D01*
X96904761Y-142952380D02*
X96904761Y-141952380D01*
X97476190Y-142952380D01*
X97476190Y-141952380D01*
%TO.C,D5*%
X124372380Y-80438095D02*
X123372380Y-80438095D01*
X123372380Y-80200000D01*
X123420000Y-80057142D01*
X123515238Y-79961904D01*
X123610476Y-79914285D01*
X123800952Y-79866666D01*
X123943809Y-79866666D01*
X124134285Y-79914285D01*
X124229523Y-79961904D01*
X124324761Y-80057142D01*
X124372380Y-80200000D01*
X124372380Y-80438095D01*
X123372380Y-78961904D02*
X123372380Y-79438095D01*
X123848571Y-79485714D01*
X123800952Y-79438095D01*
X123753333Y-79342857D01*
X123753333Y-79104761D01*
X123800952Y-79009523D01*
X123848571Y-78961904D01*
X123943809Y-78914285D01*
X124181904Y-78914285D01*
X124277142Y-78961904D01*
X124324761Y-79009523D01*
X124372380Y-79104761D01*
X124372380Y-79342857D01*
X124324761Y-79438095D01*
X124277142Y-79485714D01*
X126472380Y-73611904D02*
X125472380Y-73611904D01*
X126472380Y-73040476D02*
X125900952Y-73469047D01*
X125472380Y-73040476D02*
X126043809Y-73611904D01*
%TO.C,D3*%
X75872380Y-80438095D02*
X74872380Y-80438095D01*
X74872380Y-80200000D01*
X74920000Y-80057142D01*
X75015238Y-79961904D01*
X75110476Y-79914285D01*
X75300952Y-79866666D01*
X75443809Y-79866666D01*
X75634285Y-79914285D01*
X75729523Y-79961904D01*
X75824761Y-80057142D01*
X75872380Y-80200000D01*
X75872380Y-80438095D01*
X74872380Y-79533333D02*
X74872380Y-78914285D01*
X75253333Y-79247619D01*
X75253333Y-79104761D01*
X75300952Y-79009523D01*
X75348571Y-78961904D01*
X75443809Y-78914285D01*
X75681904Y-78914285D01*
X75777142Y-78961904D01*
X75824761Y-79009523D01*
X75872380Y-79104761D01*
X75872380Y-79390476D01*
X75824761Y-79485714D01*
X75777142Y-79533333D01*
X77972380Y-73611904D02*
X76972380Y-73611904D01*
X77972380Y-73040476D02*
X77400952Y-73469047D01*
X76972380Y-73040476D02*
X77543809Y-73611904D01*
%TO.C,D6*%
X65412380Y-69008095D02*
X64412380Y-69008095D01*
X64412380Y-68770000D01*
X64460000Y-68627142D01*
X64555238Y-68531904D01*
X64650476Y-68484285D01*
X64840952Y-68436666D01*
X64983809Y-68436666D01*
X65174285Y-68484285D01*
X65269523Y-68531904D01*
X65364761Y-68627142D01*
X65412380Y-68770000D01*
X65412380Y-69008095D01*
X64412380Y-67579523D02*
X64412380Y-67770000D01*
X64460000Y-67865238D01*
X64507619Y-67912857D01*
X64650476Y-68008095D01*
X64840952Y-68055714D01*
X65221904Y-68055714D01*
X65317142Y-68008095D01*
X65364761Y-67960476D01*
X65412380Y-67865238D01*
X65412380Y-67674761D01*
X65364761Y-67579523D01*
X65317142Y-67531904D01*
X65221904Y-67484285D01*
X64983809Y-67484285D01*
X64888571Y-67531904D01*
X64840952Y-67579523D01*
X64793333Y-67674761D01*
X64793333Y-67865238D01*
X64840952Y-67960476D01*
X64888571Y-68008095D01*
X64983809Y-68055714D01*
X60309523Y-64817142D02*
X60261904Y-64864761D01*
X60119047Y-64912380D01*
X60023809Y-64912380D01*
X59880952Y-64864761D01*
X59785714Y-64769523D01*
X59738095Y-64674285D01*
X59690476Y-64483809D01*
X59690476Y-64340952D01*
X59738095Y-64150476D01*
X59785714Y-64055238D01*
X59880952Y-63960000D01*
X60023809Y-63912380D01*
X60119047Y-63912380D01*
X60261904Y-63960000D01*
X60309523Y-64007619D01*
X60738095Y-64912380D02*
X60738095Y-63912380D01*
X60738095Y-64388571D02*
X61309523Y-64388571D01*
X61309523Y-64912380D02*
X61309523Y-63912380D01*
X62309523Y-64912380D02*
X61738095Y-64912380D01*
X62023809Y-64912380D02*
X62023809Y-63912380D01*
X61928571Y-64055238D01*
X61833333Y-64150476D01*
X61738095Y-64198095D01*
%TO.C,BT1*%
X70348571Y-93765714D02*
X70396190Y-93622857D01*
X70443809Y-93575238D01*
X70539047Y-93527619D01*
X70681904Y-93527619D01*
X70777142Y-93575238D01*
X70824761Y-93622857D01*
X70872380Y-93718095D01*
X70872380Y-94099047D01*
X69872380Y-94099047D01*
X69872380Y-93765714D01*
X69920000Y-93670476D01*
X69967619Y-93622857D01*
X70062857Y-93575238D01*
X70158095Y-93575238D01*
X70253333Y-93622857D01*
X70300952Y-93670476D01*
X70348571Y-93765714D01*
X70348571Y-94099047D01*
X69872380Y-93241904D02*
X69872380Y-92670476D01*
X70872380Y-92956190D02*
X69872380Y-92956190D01*
X70872380Y-91813333D02*
X70872380Y-92384761D01*
X70872380Y-92099047D02*
X69872380Y-92099047D01*
X70015238Y-92194285D01*
X70110476Y-92289523D01*
X70158095Y-92384761D01*
X61131428Y-148750952D02*
X61131428Y-147989047D01*
X61131428Y-89980952D02*
X61131428Y-89219047D01*
X61512380Y-89600000D02*
X60750476Y-89600000D01*
%TO.C,BT4*%
X138348571Y-93765714D02*
X138396190Y-93622857D01*
X138443809Y-93575238D01*
X138539047Y-93527619D01*
X138681904Y-93527619D01*
X138777142Y-93575238D01*
X138824761Y-93622857D01*
X138872380Y-93718095D01*
X138872380Y-94099047D01*
X137872380Y-94099047D01*
X137872380Y-93765714D01*
X137920000Y-93670476D01*
X137967619Y-93622857D01*
X138062857Y-93575238D01*
X138158095Y-93575238D01*
X138253333Y-93622857D01*
X138300952Y-93670476D01*
X138348571Y-93765714D01*
X138348571Y-94099047D01*
X137872380Y-93241904D02*
X137872380Y-92670476D01*
X138872380Y-92956190D02*
X137872380Y-92956190D01*
X138205714Y-91908571D02*
X138872380Y-91908571D01*
X137824761Y-92146666D02*
X138539047Y-92384761D01*
X138539047Y-91765714D01*
X129131428Y-89980952D02*
X129131428Y-89219047D01*
X129512380Y-89600000D02*
X128750476Y-89600000D01*
X129131428Y-148750952D02*
X129131428Y-147989047D01*
%TO.C,D1*%
X99452380Y-92238095D02*
X98452380Y-92238095D01*
X98452380Y-92000000D01*
X98500000Y-91857142D01*
X98595238Y-91761904D01*
X98690476Y-91714285D01*
X98880952Y-91666666D01*
X99023809Y-91666666D01*
X99214285Y-91714285D01*
X99309523Y-91761904D01*
X99404761Y-91857142D01*
X99452380Y-92000000D01*
X99452380Y-92238095D01*
X99452380Y-90714285D02*
X99452380Y-91285714D01*
X99452380Y-91000000D02*
X98452380Y-91000000D01*
X98595238Y-91095238D01*
X98690476Y-91190476D01*
X98738095Y-91285714D01*
X93666666Y-87452380D02*
X93666666Y-86452380D01*
X94047619Y-86452380D01*
X94142857Y-86500000D01*
X94190476Y-86547619D01*
X94238095Y-86642857D01*
X94238095Y-86785714D01*
X94190476Y-86880952D01*
X94142857Y-86928571D01*
X94047619Y-86976190D01*
X93666666Y-86976190D01*
X94571428Y-86452380D02*
X94809523Y-87452380D01*
X95000000Y-86738095D01*
X95190476Y-87452380D01*
X95428571Y-86452380D01*
X96380952Y-87452380D02*
X96047619Y-86976190D01*
X95809523Y-87452380D02*
X95809523Y-86452380D01*
X96190476Y-86452380D01*
X96285714Y-86500000D01*
X96333333Y-86547619D01*
X96380952Y-86642857D01*
X96380952Y-86785714D01*
X96333333Y-86880952D01*
X96285714Y-86928571D01*
X96190476Y-86976190D01*
X95809523Y-86976190D01*
%TO.C,D4*%
X104872380Y-80438095D02*
X103872380Y-80438095D01*
X103872380Y-80200000D01*
X103920000Y-80057142D01*
X104015238Y-79961904D01*
X104110476Y-79914285D01*
X104300952Y-79866666D01*
X104443809Y-79866666D01*
X104634285Y-79914285D01*
X104729523Y-79961904D01*
X104824761Y-80057142D01*
X104872380Y-80200000D01*
X104872380Y-80438095D01*
X104205714Y-79009523D02*
X104872380Y-79009523D01*
X103824761Y-79247619D02*
X104539047Y-79485714D01*
X104539047Y-78866666D01*
X106972380Y-73611904D02*
X105972380Y-73611904D01*
X106972380Y-73040476D02*
X106400952Y-73469047D01*
X105972380Y-73040476D02*
X106543809Y-73611904D01*
%TO.C,D7*%
X84912380Y-69008095D02*
X83912380Y-69008095D01*
X83912380Y-68770000D01*
X83960000Y-68627142D01*
X84055238Y-68531904D01*
X84150476Y-68484285D01*
X84340952Y-68436666D01*
X84483809Y-68436666D01*
X84674285Y-68484285D01*
X84769523Y-68531904D01*
X84864761Y-68627142D01*
X84912380Y-68770000D01*
X84912380Y-69008095D01*
X83912380Y-68103333D02*
X83912380Y-67436666D01*
X84912380Y-67865238D01*
X79809523Y-64817142D02*
X79761904Y-64864761D01*
X79619047Y-64912380D01*
X79523809Y-64912380D01*
X79380952Y-64864761D01*
X79285714Y-64769523D01*
X79238095Y-64674285D01*
X79190476Y-64483809D01*
X79190476Y-64340952D01*
X79238095Y-64150476D01*
X79285714Y-64055238D01*
X79380952Y-63960000D01*
X79523809Y-63912380D01*
X79619047Y-63912380D01*
X79761904Y-63960000D01*
X79809523Y-64007619D01*
X80238095Y-64912380D02*
X80238095Y-63912380D01*
X80238095Y-64388571D02*
X80809523Y-64388571D01*
X80809523Y-64912380D02*
X80809523Y-63912380D01*
X81238095Y-64007619D02*
X81285714Y-63960000D01*
X81380952Y-63912380D01*
X81619047Y-63912380D01*
X81714285Y-63960000D01*
X81761904Y-64007619D01*
X81809523Y-64102857D01*
X81809523Y-64198095D01*
X81761904Y-64340952D01*
X81190476Y-64912380D01*
X81809523Y-64912380D01*
%TO.C,BT3*%
X119148571Y-93915714D02*
X119196190Y-93772857D01*
X119243809Y-93725238D01*
X119339047Y-93677619D01*
X119481904Y-93677619D01*
X119577142Y-93725238D01*
X119624761Y-93772857D01*
X119672380Y-93868095D01*
X119672380Y-94249047D01*
X118672380Y-94249047D01*
X118672380Y-93915714D01*
X118720000Y-93820476D01*
X118767619Y-93772857D01*
X118862857Y-93725238D01*
X118958095Y-93725238D01*
X119053333Y-93772857D01*
X119100952Y-93820476D01*
X119148571Y-93915714D01*
X119148571Y-94249047D01*
X118672380Y-93391904D02*
X118672380Y-92820476D01*
X119672380Y-93106190D02*
X118672380Y-93106190D01*
X118672380Y-92582380D02*
X118672380Y-91963333D01*
X119053333Y-92296666D01*
X119053333Y-92153809D01*
X119100952Y-92058571D01*
X119148571Y-92010952D01*
X119243809Y-91963333D01*
X119481904Y-91963333D01*
X119577142Y-92010952D01*
X119624761Y-92058571D01*
X119672380Y-92153809D01*
X119672380Y-92439523D01*
X119624761Y-92534761D01*
X119577142Y-92582380D01*
X109631428Y-89980952D02*
X109631428Y-89219047D01*
X110012380Y-89600000D02*
X109250476Y-89600000D01*
X109631428Y-148750952D02*
X109631428Y-147989047D01*
%TO.C,BT2*%
X89848571Y-93765714D02*
X89896190Y-93622857D01*
X89943809Y-93575238D01*
X90039047Y-93527619D01*
X90181904Y-93527619D01*
X90277142Y-93575238D01*
X90324761Y-93622857D01*
X90372380Y-93718095D01*
X90372380Y-94099047D01*
X89372380Y-94099047D01*
X89372380Y-93765714D01*
X89420000Y-93670476D01*
X89467619Y-93622857D01*
X89562857Y-93575238D01*
X89658095Y-93575238D01*
X89753333Y-93622857D01*
X89800952Y-93670476D01*
X89848571Y-93765714D01*
X89848571Y-94099047D01*
X89372380Y-93241904D02*
X89372380Y-92670476D01*
X90372380Y-92956190D02*
X89372380Y-92956190D01*
X89467619Y-92384761D02*
X89420000Y-92337142D01*
X89372380Y-92241904D01*
X89372380Y-92003809D01*
X89420000Y-91908571D01*
X89467619Y-91860952D01*
X89562857Y-91813333D01*
X89658095Y-91813333D01*
X89800952Y-91860952D01*
X90372380Y-92432380D01*
X90372380Y-91813333D01*
X80631428Y-148750952D02*
X80631428Y-147989047D01*
X80631428Y-89980952D02*
X80631428Y-89219047D01*
X81012380Y-89600000D02*
X80250476Y-89600000D01*
%TO.C,D2*%
X56372380Y-80438095D02*
X55372380Y-80438095D01*
X55372380Y-80200000D01*
X55420000Y-80057142D01*
X55515238Y-79961904D01*
X55610476Y-79914285D01*
X55800952Y-79866666D01*
X55943809Y-79866666D01*
X56134285Y-79914285D01*
X56229523Y-79961904D01*
X56324761Y-80057142D01*
X56372380Y-80200000D01*
X56372380Y-80438095D01*
X55467619Y-79485714D02*
X55420000Y-79438095D01*
X55372380Y-79342857D01*
X55372380Y-79104761D01*
X55420000Y-79009523D01*
X55467619Y-78961904D01*
X55562857Y-78914285D01*
X55658095Y-78914285D01*
X55800952Y-78961904D01*
X56372380Y-79533333D01*
X56372380Y-78914285D01*
X58472380Y-73611904D02*
X57472380Y-73611904D01*
X58472380Y-73040476D02*
X57900952Y-73469047D01*
X57472380Y-73040476D02*
X58043809Y-73611904D01*
%TO.C,D8*%
X113912380Y-69008095D02*
X112912380Y-69008095D01*
X112912380Y-68770000D01*
X112960000Y-68627142D01*
X113055238Y-68531904D01*
X113150476Y-68484285D01*
X113340952Y-68436666D01*
X113483809Y-68436666D01*
X113674285Y-68484285D01*
X113769523Y-68531904D01*
X113864761Y-68627142D01*
X113912380Y-68770000D01*
X113912380Y-69008095D01*
X113340952Y-67865238D02*
X113293333Y-67960476D01*
X113245714Y-68008095D01*
X113150476Y-68055714D01*
X113102857Y-68055714D01*
X113007619Y-68008095D01*
X112960000Y-67960476D01*
X112912380Y-67865238D01*
X112912380Y-67674761D01*
X112960000Y-67579523D01*
X113007619Y-67531904D01*
X113102857Y-67484285D01*
X113150476Y-67484285D01*
X113245714Y-67531904D01*
X113293333Y-67579523D01*
X113340952Y-67674761D01*
X113340952Y-67865238D01*
X113388571Y-67960476D01*
X113436190Y-68008095D01*
X113531428Y-68055714D01*
X113721904Y-68055714D01*
X113817142Y-68008095D01*
X113864761Y-67960476D01*
X113912380Y-67865238D01*
X113912380Y-67674761D01*
X113864761Y-67579523D01*
X113817142Y-67531904D01*
X113721904Y-67484285D01*
X113531428Y-67484285D01*
X113436190Y-67531904D01*
X113388571Y-67579523D01*
X113340952Y-67674761D01*
X108809523Y-64817142D02*
X108761904Y-64864761D01*
X108619047Y-64912380D01*
X108523809Y-64912380D01*
X108380952Y-64864761D01*
X108285714Y-64769523D01*
X108238095Y-64674285D01*
X108190476Y-64483809D01*
X108190476Y-64340952D01*
X108238095Y-64150476D01*
X108285714Y-64055238D01*
X108380952Y-63960000D01*
X108523809Y-63912380D01*
X108619047Y-63912380D01*
X108761904Y-63960000D01*
X108809523Y-64007619D01*
X109238095Y-64912380D02*
X109238095Y-63912380D01*
X109238095Y-64388571D02*
X109809523Y-64388571D01*
X109809523Y-64912380D02*
X109809523Y-63912380D01*
X110190476Y-63912380D02*
X110809523Y-63912380D01*
X110476190Y-64293333D01*
X110619047Y-64293333D01*
X110714285Y-64340952D01*
X110761904Y-64388571D01*
X110809523Y-64483809D01*
X110809523Y-64721904D01*
X110761904Y-64817142D01*
X110714285Y-64864761D01*
X110619047Y-64912380D01*
X110333333Y-64912380D01*
X110238095Y-64864761D01*
X110190476Y-64817142D01*
D11*
%TO.C,R9*%
X135800000Y-75080000D02*
X132360000Y-75080000D01*
X134080000Y-74390000D02*
X134080000Y-75080000D01*
X134080000Y-85010000D02*
X134080000Y-84320000D01*
X132360000Y-84320000D02*
X135800000Y-84320000D01*
X132360000Y-75080000D02*
X132360000Y-84320000D01*
X135800000Y-84320000D02*
X135800000Y-75080000D01*
%TO.C,R8*%
X116300000Y-75080000D02*
X112860000Y-75080000D01*
X114580000Y-74390000D02*
X114580000Y-75080000D01*
X114580000Y-85010000D02*
X114580000Y-84320000D01*
X112860000Y-84320000D02*
X116300000Y-84320000D01*
X112860000Y-75080000D02*
X112860000Y-84320000D01*
X116300000Y-84320000D02*
X116300000Y-75080000D01*
%TO.C,R7*%
X87300000Y-75080000D02*
X83860000Y-75080000D01*
X85580000Y-74390000D02*
X85580000Y-75080000D01*
X85580000Y-85010000D02*
X85580000Y-84320000D01*
X83860000Y-84320000D02*
X87300000Y-84320000D01*
X83860000Y-75080000D02*
X83860000Y-84320000D01*
X87300000Y-84320000D02*
X87300000Y-75080000D01*
%TO.C,R6*%
X67800000Y-75080000D02*
X64360000Y-75080000D01*
X66080000Y-74390000D02*
X66080000Y-75080000D01*
X66080000Y-85010000D02*
X66080000Y-84320000D01*
X64360000Y-84320000D02*
X67800000Y-84320000D01*
X64360000Y-75080000D02*
X64360000Y-84320000D01*
X67800000Y-84320000D02*
X67800000Y-75080000D01*
%TO.C,R5*%
X127280000Y-84320000D02*
X130720000Y-84320000D01*
X129000000Y-85010000D02*
X129000000Y-84320000D01*
X129000000Y-74390000D02*
X129000000Y-75080000D01*
X130720000Y-75080000D02*
X127280000Y-75080000D01*
X130720000Y-84320000D02*
X130720000Y-75080000D01*
X127280000Y-75080000D02*
X127280000Y-84320000D01*
%TO.C,R4*%
X107780000Y-84320000D02*
X111220000Y-84320000D01*
X109500000Y-85010000D02*
X109500000Y-84320000D01*
X109500000Y-74390000D02*
X109500000Y-75080000D01*
X111220000Y-75080000D02*
X107780000Y-75080000D01*
X111220000Y-84320000D02*
X111220000Y-75080000D01*
X107780000Y-75080000D02*
X107780000Y-84320000D01*
%TO.C,R3*%
X78780000Y-84320000D02*
X82220000Y-84320000D01*
X80500000Y-85010000D02*
X80500000Y-84320000D01*
X80500000Y-74390000D02*
X80500000Y-75080000D01*
X82220000Y-75080000D02*
X78780000Y-75080000D01*
X82220000Y-84320000D02*
X82220000Y-75080000D01*
X78780000Y-75080000D02*
X78780000Y-84320000D01*
%TO.C,R2*%
X59280000Y-84320000D02*
X62720000Y-84320000D01*
X61000000Y-85010000D02*
X61000000Y-84320000D01*
X61000000Y-74390000D02*
X61000000Y-75080000D01*
X62720000Y-75080000D02*
X59280000Y-75080000D01*
X62720000Y-84320000D02*
X62720000Y-75080000D01*
X59280000Y-75080000D02*
X59280000Y-84320000D01*
%TO.C,R1*%
X96720000Y-98230000D02*
X93280000Y-98230000D01*
X95000000Y-97540000D02*
X95000000Y-98230000D01*
X95000000Y-108160000D02*
X95000000Y-107470000D01*
X93280000Y-107470000D02*
X96720000Y-107470000D01*
X93280000Y-98230000D02*
X93280000Y-107470000D01*
X96720000Y-107470000D02*
X96720000Y-98230000D01*
%TO.C,D9*%
X130545000Y-65710000D02*
X127455000Y-65710000D01*
X128999538Y-71260000D02*
G75*
G03*
X130544830Y-65710000I462J2990000D01*
G01*
X127455170Y-65710000D02*
G75*
G03*
X129000462Y-71260000I1544830J-2560000D01*
G01*
X131500000Y-68270000D02*
G75*
G03*
X131500000Y-68270000I-2500000J0D01*
G01*
%TO.C,J1*%
X90625000Y-143857500D02*
X99375000Y-143857500D01*
X99375000Y-143857500D02*
X99375000Y-150357500D01*
X99375000Y-150357500D02*
X90625000Y-150357500D01*
X90625000Y-150357500D02*
X90625000Y-143857500D01*
%TO.C,D5*%
X125390000Y-77880000D02*
X122450000Y-77880000D01*
X125390000Y-77760000D02*
X122450000Y-77760000D01*
X125390000Y-78000000D02*
X122450000Y-78000000D01*
X123920000Y-74690000D02*
X123920000Y-76980000D01*
X122450000Y-76980000D02*
X122450000Y-82420000D01*
X125390000Y-82420000D02*
X125390000Y-76980000D01*
X123920000Y-84710000D02*
X123920000Y-82420000D01*
X122450000Y-82420000D02*
X125390000Y-82420000D01*
X125390000Y-76980000D02*
X122450000Y-76980000D01*
%TO.C,D3*%
X75420000Y-84710000D02*
X75420000Y-82420000D01*
X75420000Y-74690000D02*
X75420000Y-76980000D01*
X76890000Y-77760000D02*
X73950000Y-77760000D01*
X76890000Y-78000000D02*
X73950000Y-78000000D01*
X76890000Y-76980000D02*
X73950000Y-76980000D01*
X76890000Y-77880000D02*
X73950000Y-77880000D01*
X73950000Y-82420000D02*
X76890000Y-82420000D01*
X73950000Y-76980000D02*
X73950000Y-82420000D01*
X76890000Y-82420000D02*
X76890000Y-76980000D01*
%TO.C,D6*%
X62545000Y-65710000D02*
X59455000Y-65710000D01*
X59455170Y-65710000D02*
G75*
G03*
X61000462Y-71260000I1544830J-2560000D01*
G01*
X60999538Y-71260000D02*
G75*
G03*
X62544830Y-65710000I462J2990000D01*
G01*
X63500000Y-68270000D02*
G75*
G03*
X63500000Y-68270000I-2500000J0D01*
G01*
%TO.C,BT1*%
X52435000Y-147620000D02*
X52435000Y-90380000D01*
X69565000Y-90380000D02*
X69565000Y-147620000D01*
X52435000Y-90380000D02*
X69565000Y-90380000D01*
X63060000Y-141310000D02*
X59060000Y-141310000D01*
X68600000Y-91100000D02*
X53400000Y-91100000D01*
X58060000Y-142310000D02*
X64060000Y-142310000D01*
X65060000Y-143310000D02*
X57060000Y-143310000D01*
X53400000Y-128900000D02*
X53400000Y-146900000D01*
X55400000Y-126900000D02*
X55400000Y-111100000D01*
X66600000Y-111100000D02*
X66600000Y-126900000D01*
X68600000Y-91100000D02*
X68600000Y-109100000D01*
X62060000Y-140310000D02*
X60060000Y-140310000D01*
X69565000Y-147620000D02*
X52435000Y-147620000D01*
X68600000Y-128900000D02*
X68600000Y-146900000D01*
X68600000Y-146900000D02*
X53400000Y-146900000D01*
X53400000Y-91100000D02*
X53400000Y-109100000D01*
X53400000Y-128900000D02*
G75*
G03*
X55400000Y-126900000I1J1999999D01*
G01*
X66600000Y-126900000D02*
G75*
G03*
X68600000Y-128900000I1999999J-1D01*
G01*
X55400000Y-111100000D02*
G75*
G03*
X53400000Y-109100000I-1999999J1D01*
G01*
X68600000Y-109100000D02*
G75*
G03*
X66600000Y-111100000I-1J-1999999D01*
G01*
%TO.C,BT4*%
X126060000Y-142310000D02*
X132060000Y-142310000D01*
X120435000Y-90380000D02*
X137565000Y-90380000D01*
X134600000Y-111100000D02*
X134600000Y-126900000D01*
X136600000Y-91100000D02*
X136600000Y-109100000D01*
X131060000Y-141310000D02*
X127060000Y-141310000D01*
X137565000Y-147620000D02*
X120435000Y-147620000D01*
X133060000Y-143310000D02*
X125060000Y-143310000D01*
X136600000Y-91100000D02*
X121400000Y-91100000D01*
X130060000Y-140310000D02*
X128060000Y-140310000D01*
X136600000Y-128900000D02*
X136600000Y-146900000D01*
X136600000Y-146900000D02*
X121400000Y-146900000D01*
X137565000Y-90380000D02*
X137565000Y-147620000D01*
X123400000Y-126900000D02*
X123400000Y-111100000D01*
X120435000Y-147620000D02*
X120435000Y-90380000D01*
X121400000Y-128900000D02*
X121400000Y-146900000D01*
X121400000Y-91100000D02*
X121400000Y-109100000D01*
X134600000Y-126900000D02*
G75*
G03*
X136600000Y-128900000I1999999J-1D01*
G01*
X121400000Y-128900000D02*
G75*
G03*
X123400000Y-126900000I1J1999999D01*
G01*
X123400000Y-111100000D02*
G75*
G03*
X121400000Y-109100000I-1999999J1D01*
G01*
X136600000Y-109100000D02*
G75*
G03*
X134600000Y-111100000I-1J-1999999D01*
G01*
%TO.C,D1*%
X93455000Y-94290000D02*
X96545000Y-94290000D01*
X96544830Y-94290000D02*
G75*
G03*
X94999538Y-88740000I-1544830J2560000D01*
G01*
X95000462Y-88740000D02*
G75*
G03*
X93455170Y-94290000I-462J-2990000D01*
G01*
X97500000Y-91730000D02*
G75*
G03*
X97500000Y-91730000I-2500000J0D01*
G01*
%TO.C,D4*%
X102950000Y-82420000D02*
X105890000Y-82420000D01*
X104420000Y-84710000D02*
X104420000Y-82420000D01*
X105890000Y-78000000D02*
X102950000Y-78000000D01*
X105890000Y-82420000D02*
X105890000Y-76980000D01*
X102950000Y-76980000D02*
X102950000Y-82420000D01*
X105890000Y-77880000D02*
X102950000Y-77880000D01*
X105890000Y-77760000D02*
X102950000Y-77760000D01*
X104420000Y-74690000D02*
X104420000Y-76980000D01*
X105890000Y-76980000D02*
X102950000Y-76980000D01*
%TO.C,D7*%
X82045000Y-65710000D02*
X78955000Y-65710000D01*
X80499538Y-71260000D02*
G75*
G03*
X82044830Y-65710000I462J2990000D01*
G01*
X78955170Y-65710000D02*
G75*
G03*
X80500462Y-71260000I1544830J-2560000D01*
G01*
X83000000Y-68270000D02*
G75*
G03*
X83000000Y-68270000I-2500000J0D01*
G01*
%TO.C,BT3*%
X100935000Y-147620000D02*
X100935000Y-90380000D01*
X117100000Y-91100000D02*
X117100000Y-109100000D01*
X101900000Y-91100000D02*
X101900000Y-109100000D01*
X100935000Y-90380000D02*
X118065000Y-90380000D01*
X117100000Y-128900000D02*
X117100000Y-146900000D01*
X111560000Y-141310000D02*
X107560000Y-141310000D01*
X103900000Y-126900000D02*
X103900000Y-111100000D01*
X113560000Y-143310000D02*
X105560000Y-143310000D01*
X110560000Y-140310000D02*
X108560000Y-140310000D01*
X117100000Y-146900000D02*
X101900000Y-146900000D01*
X106560000Y-142310000D02*
X112560000Y-142310000D01*
X115100000Y-111100000D02*
X115100000Y-126900000D01*
X117100000Y-91100000D02*
X101900000Y-91100000D01*
X101900000Y-128900000D02*
X101900000Y-146900000D01*
X118065000Y-90380000D02*
X118065000Y-147620000D01*
X118065000Y-147620000D02*
X100935000Y-147620000D01*
X115100000Y-126900000D02*
G75*
G03*
X117100000Y-128900000I1999999J-1D01*
G01*
X101900000Y-128900000D02*
G75*
G03*
X103900000Y-126900000I1J1999999D01*
G01*
X117100000Y-109100000D02*
G75*
G03*
X115100000Y-111100000I-1J-1999999D01*
G01*
X103900000Y-111100000D02*
G75*
G03*
X101900000Y-109100000I-1999999J1D01*
G01*
%TO.C,BT2*%
X82560000Y-141310000D02*
X78560000Y-141310000D01*
X88100000Y-91100000D02*
X88100000Y-109100000D01*
X72900000Y-128900000D02*
X72900000Y-146900000D01*
X74900000Y-126900000D02*
X74900000Y-111100000D01*
X88100000Y-91100000D02*
X72900000Y-91100000D01*
X71935000Y-90380000D02*
X89065000Y-90380000D01*
X89065000Y-90380000D02*
X89065000Y-147620000D01*
X89065000Y-147620000D02*
X71935000Y-147620000D01*
X77560000Y-142310000D02*
X83560000Y-142310000D01*
X86100000Y-111100000D02*
X86100000Y-126900000D01*
X88100000Y-146900000D02*
X72900000Y-146900000D01*
X72900000Y-91100000D02*
X72900000Y-109100000D01*
X81560000Y-140310000D02*
X79560000Y-140310000D01*
X84560000Y-143310000D02*
X76560000Y-143310000D01*
X71935000Y-147620000D02*
X71935000Y-90380000D01*
X88100000Y-128900000D02*
X88100000Y-146900000D01*
X74900000Y-111100000D02*
G75*
G03*
X72900000Y-109100000I-1999999J1D01*
G01*
X72900000Y-128900000D02*
G75*
G03*
X74900000Y-126900000I1J1999999D01*
G01*
X86100000Y-126900000D02*
G75*
G03*
X88100000Y-128900000I1999999J-1D01*
G01*
X88100000Y-109100000D02*
G75*
G03*
X86100000Y-111100000I-1J-1999999D01*
G01*
%TO.C,D2*%
X57390000Y-77880000D02*
X54450000Y-77880000D01*
X57390000Y-76980000D02*
X54450000Y-76980000D01*
X54450000Y-82420000D02*
X57390000Y-82420000D01*
X55920000Y-84710000D02*
X55920000Y-82420000D01*
X57390000Y-78000000D02*
X54450000Y-78000000D01*
X54450000Y-76980000D02*
X54450000Y-82420000D01*
X57390000Y-77760000D02*
X54450000Y-77760000D01*
X55920000Y-74690000D02*
X55920000Y-76980000D01*
X57390000Y-82420000D02*
X57390000Y-76980000D01*
%TO.C,D8*%
X111045000Y-65710000D02*
X107955000Y-65710000D01*
X107955170Y-65710000D02*
G75*
G03*
X109500462Y-71260000I1544830J-2560000D01*
G01*
X109499538Y-71260000D02*
G75*
G03*
X111044830Y-65710000I462J2990000D01*
G01*
X112000000Y-68270000D02*
G75*
G03*
X112000000Y-68270000I-2500000J0D01*
G01*
%TD*%
M02*
