M48
; DRILL file {KiCad (6.0.2)} date Fri Mar 25 11:35:37 2022
; FORMAT={-:-/ absolute / inch / decimal}
; #@! TF.CreationDate,2022-03-25T11:35:37+00:00
; #@! TF.GenerationSoftware,Kicad,Pcbnew,(6.0.2)
; #@! TF.FileFunction,MixedPlating,1,2
FMAT,2
INCH
; #@! TA.AperFunction,Plated,PTH,ComponentDrill
T1C0.0177
; #@! TA.AperFunction,Plated,PTH,ComponentDrill
T2C0.0197
; #@! TA.AperFunction,Plated,PTH,ComponentDrill
T3C0.0315
; #@! TA.AperFunction,Plated,PTH,ComponentDrill
T4C0.0354
; #@! TA.AperFunction,Plated,PTH,ComponentDrill
T5C0.0402
; #@! TA.AperFunction,Plated,PTH,ComponentDrill
T6C0.0433
; #@! TA.AperFunction,NonPlated,NPTH,ComponentDrill
T7C0.1024
; #@! TA.AperFunction,NonPlated,NPTH,ComponentDrill
T8C0.1039
; #@! TA.AperFunction,NonPlated,NPTH,ComponentDrill
T9C0.1260
%
G90
G05
T3
X2.4016Y-2.8878
X2.4016Y-3.3878
X2.6016Y-2.8878
X2.6016Y-3.3878
X3.1693Y-2.8878
X3.1693Y-3.3878
X3.3693Y-2.8878
X3.3693Y-3.3878
X3.7402Y-3.7992
X3.7402Y-4.2992
X4.311Y-2.8878
X4.311Y-3.3878
X4.511Y-2.8878
X4.511Y-3.3878
X5.0787Y-2.8878
X5.0787Y-3.3878
X5.2787Y-2.8878
X5.2787Y-3.3878
T4
X2.4016Y-2.6378
X2.4016Y-2.7378
X3.1693Y-2.6378
X3.1693Y-2.7378
X3.7402Y-3.5614
X3.7402Y-3.6614
X4.311Y-2.6378
X4.311Y-2.7378
X5.0787Y-2.6378
X5.0787Y-2.7378
T5
X2.4016Y-3.6614
X2.4016Y-5.7083
X3.1693Y-3.6614
X3.1693Y-5.7083
X4.311Y-3.6614
X4.311Y-5.7083
X5.0787Y-3.6614
X5.0787Y-5.7083
T6
X2.2016Y-2.8878
X2.2016Y-3.3878
X2.9693Y-2.8878
X2.9693Y-3.3878
X3.622Y-4.9833
X3.8583Y-4.9833
X4.111Y-2.8878
X4.111Y-3.3878
X4.8787Y-2.8878
X4.8787Y-3.3878
T7
X3.622Y-5.4793
X3.8583Y-5.4793
T8
X2.1656Y-5.5996
X2.6376Y-3.7697
X2.9333Y-5.5996
X3.4053Y-3.7697
X4.075Y-5.5996
X4.547Y-3.7697
X4.8427Y-5.5996
X5.3148Y-3.7697
T9
X3.7402Y-3.1496
X3.7402Y-4.7244
T1
G00X3.6593Y-5.6716
M15
G01X3.6793Y-5.6716
M16
G05
G00X3.801Y-5.6716
M15
G01X3.8211Y-5.6716
M16
G05
T2
G00X3.5679Y-5.8097
M15
G01X3.5679Y-5.831
M16
G05
G00X3.9124Y-5.8097
M15
G01X3.9124Y-5.831
M16
G05
T0
M30
