%TF.GenerationSoftware,KiCad,Pcbnew,(6.0.2)*%
%TF.CreationDate,2022-03-25T11:37:34+00:00*%
%TF.ProjectId,nimh-charger,6e696d68-2d63-4686-9172-6765722e6b69,rev?*%
%TF.SameCoordinates,Original*%
%TF.FileFunction,Soldermask,Top*%
%TF.FilePolarity,Negative*%
%FSLAX46Y46*%
G04 Gerber Fmt 4.6, Leading zero omitted, Abs format (unit mm)*
G04 Created by KiCad (PCBNEW (6.0.2)) date 2022-03-25 11:37:34*
%MOMM*%
%LPD*%
G01*
G04 APERTURE LIST*
G04 Aperture macros list*
%AMRoundRect*
0 Rectangle with rounded corners*
0 $1 Rounding radius*
0 $2 $3 $4 $5 $6 $7 $8 $9 X,Y pos of 4 corners*
0 Add a 4 corners polygon primitive as box body*
4,1,4,$2,$3,$4,$5,$6,$7,$8,$9,$2,$3,0*
0 Add four circle primitives for the rounded corners*
1,1,$1+$1,$2,$3*
1,1,$1+$1,$4,$5*
1,1,$1+$1,$6,$7*
1,1,$1+$1,$8,$9*
0 Add four rect primitives between the rounded corners*
20,1,$1+$1,$2,$3,$4,$5,0*
20,1,$1+$1,$4,$5,$6,$7,0*
20,1,$1+$1,$6,$7,$8,$9,0*
20,1,$1+$1,$8,$9,$2,$3,0*%
G04 Aperture macros list end*
%ADD10C,2.600000*%
%ADD11RoundRect,0.250001X0.799999X0.799999X-0.799999X0.799999X-0.799999X-0.799999X0.799999X-0.799999X0*%
%ADD12C,1.600000*%
%ADD13O,1.600000X1.600000*%
%ADD14C,3.200000*%
%ADD15R,1.800000X1.800000*%
%ADD16C,1.800000*%
%ADD17RoundRect,0.237500X-0.492500X-0.237500X0.492500X-0.237500X0.492500X0.237500X-0.492500X0.237500X0*%
%ADD18RoundRect,0.250000X-0.250000X-0.520000X0.250000X-0.520000X0.250000X0.520000X-0.250000X0.520000X0*%
%ADD19R,2.200000X2.200000*%
%ADD20O,2.200000X2.200000*%
%ADD21C,2.640000*%
%ADD22R,2.000000X2.000000*%
%ADD23C,2.000000*%
G04 APERTURE END LIST*
D10*
%TO.C,TP2*%
X98000000Y-139175000D03*
D11*
X98000000Y-126575000D03*
%TD*%
D10*
%TO.C,TP1*%
X92000000Y-139175000D03*
D11*
X92000000Y-126575000D03*
%TD*%
D12*
%TO.C,R9*%
X134080000Y-73350000D03*
D13*
X134080000Y-86050000D03*
%TD*%
D12*
%TO.C,R8*%
X114580000Y-73350000D03*
D13*
X114580000Y-86050000D03*
%TD*%
D12*
%TO.C,R7*%
X85580000Y-73350000D03*
D13*
X85580000Y-86050000D03*
%TD*%
D12*
%TO.C,R6*%
X66080000Y-73350000D03*
D13*
X66080000Y-86050000D03*
%TD*%
D12*
%TO.C,R5*%
X129000000Y-86050000D03*
D13*
X129000000Y-73350000D03*
%TD*%
D12*
%TO.C,R4*%
X109500000Y-86050000D03*
D13*
X109500000Y-73350000D03*
%TD*%
D12*
%TO.C,R3*%
X80500000Y-86050000D03*
D13*
X80500000Y-73350000D03*
%TD*%
D12*
%TO.C,R2*%
X61000000Y-86050000D03*
D13*
X61000000Y-73350000D03*
%TD*%
D12*
%TO.C,R1*%
X95000000Y-96500000D03*
D13*
X95000000Y-109200000D03*
%TD*%
D14*
%TO.C,H1*%
X95000000Y-120000000D03*
%TD*%
D15*
%TO.C,D9*%
X129000000Y-67000000D03*
D16*
X129000000Y-69540000D03*
%TD*%
D17*
%TO.C,J1*%
X93200000Y-144057500D03*
X96800000Y-144057500D03*
D18*
X90625000Y-147837500D03*
X99375000Y-147837500D03*
%TD*%
D19*
%TO.C,D5*%
X123920000Y-73350000D03*
D20*
X123920000Y-86050000D03*
%TD*%
D19*
%TO.C,D3*%
X75420000Y-73350000D03*
D20*
X75420000Y-86050000D03*
%TD*%
D15*
%TO.C,D6*%
X61000000Y-67000000D03*
D16*
X61000000Y-69540000D03*
%TD*%
D21*
%TO.C,BT1*%
X66995000Y-95750000D03*
X55005000Y-142230000D03*
D22*
X61000000Y-93000000D03*
D23*
X61000000Y-144990000D03*
%TD*%
D21*
%TO.C,BT4*%
X123005000Y-142230000D03*
X134995000Y-95750000D03*
D22*
X129000000Y-93000000D03*
D23*
X129000000Y-144990000D03*
%TD*%
D15*
%TO.C,D1*%
X95000000Y-93000000D03*
D16*
X95000000Y-90460000D03*
%TD*%
D19*
%TO.C,D4*%
X104420000Y-73350000D03*
D20*
X104420000Y-86050000D03*
%TD*%
D15*
%TO.C,D7*%
X80500000Y-67000000D03*
D16*
X80500000Y-69540000D03*
%TD*%
D14*
%TO.C,H2*%
X95000000Y-80000000D03*
%TD*%
D21*
%TO.C,BT3*%
X103505000Y-142230000D03*
X115495000Y-95750000D03*
D22*
X109500000Y-93000000D03*
D23*
X109500000Y-144990000D03*
%TD*%
D21*
%TO.C,BT2*%
X74505000Y-142230000D03*
X86495000Y-95750000D03*
D22*
X80500000Y-93000000D03*
D23*
X80500000Y-144990000D03*
%TD*%
D19*
%TO.C,D2*%
X55920000Y-73350000D03*
D20*
X55920000Y-86050000D03*
%TD*%
D15*
%TO.C,D8*%
X109500000Y-67000000D03*
D16*
X109500000Y-69540000D03*
%TD*%
M02*
